<svg aria-hidden="true" style="width:0;height:0;position:absolute;overflow:hidden" xmlns="http://www.w3.org/2000/svg"><defs><symbol id="icon-Burger" viewBox="0 0 46 32"><path fill="none" stroke="#d41443" style="stroke:var(--color2,#d41443)" stroke-width="2.286" d="M0 2.286h45.714M0 16h45.714M0 29.714h45.714"/></symbol><symbol id="icon-Close" viewBox="0 0 32 32"><path fill="none" stroke="#fff" style="stroke:var(--color1,#fff)" stroke-width="2" d="m2.519 2 26.963 28M2 29.481 30 2.518"/></symbol><symbol id="icon-Buy" viewBox="0 0 116 32"><path fill="#fff" style="fill:var(--color1,#fff)" d="M16 0h84.364c8.837 0 16 7.163 16 16s-7.163 16-16 16H16C7.163 32 0 24.837 0 16S7.163 0 16 0z"/><path fill="#d41443" style="fill:var(--color2,#d41443)" d="M29.419 19.636v-8.145h3.27c.846 0 1.489.198 1.932.593.45.388.675.888.675 1.501 0 .512-.14.923-.419 1.233a2.045 2.045 0 0 1-1.001.617c.465.093.849.326 1.152.698.303.365.454.791.454 1.28 0 .644-.233 1.175-.698 1.594s-1.125.628-1.978.628H29.42zm1.49-4.724h1.559c.419 0 .741-.097.966-.291s.337-.469.337-.826c0-.341-.112-.609-.337-.803-.217-.202-.547-.303-.989-.303h-1.536v2.223zm0 3.514h1.664c.442 0 .783-.101 1.024-.303.248-.209.372-.5.372-.873 0-.38-.128-.679-.384-.896s-.601-.326-1.036-.326h-1.641v2.397zm11.379-4.561v5.772h-1.315l-.116-.977a2.017 2.017 0 0 1-.78.815c-.334.202-.729.303-1.187.303-.714 0-1.268-.225-1.664-.675s-.593-1.109-.593-1.978v-3.258h1.489v3.119c0 .497.101.877.303 1.14s.516.396.943.396c.419 0 .76-.147 1.024-.442.272-.295.407-.706.407-1.233v-2.979h1.489zm2.238 8.331 1.338-2.944h-.349l-2.246-5.388h1.617l1.617 4.061 1.687-4.061h1.583l-3.665 8.332h-1.583zm8.995-2.56v-5.772h1.315l.116.977a2.04 2.04 0 0 1 .768-.815c.341-.202.741-.303 1.199-.303.714 0 1.268.225 1.664.675s.593 1.109.593 1.978v3.258h-1.489v-3.119c0-.497-.101-.877-.303-1.14s-.516-.396-.943-.396c-.419 0-.764.147-1.036.442-.264.295-.396.706-.396 1.233v2.979H53.52zm9.849.14a3.004 3.004 0 0 1-1.513-.384 2.892 2.892 0 0 1-1.059-1.059c-.256-.458-.384-.985-.384-1.583s.132-1.121.396-1.571a2.865 2.865 0 0 1 1.059-1.071c.45-.256.954-.384 1.513-.384.551 0 1.047.128 1.489.384.45.256.803.613 1.059 1.071.264.45.396.974.396 1.571s-.132 1.125-.396 1.583c-.256.45-.609.803-1.059 1.059s-.95.384-1.501.384zm0-1.292c.388 0 .725-.143 1.012-.431.287-.295.431-.729.431-1.303s-.144-1.005-.431-1.292c-.287-.295-.621-.442-1.001-.442a1.38 1.38 0 0 0-1.024.442c-.279.287-.419.718-.419 1.292s.14 1.009.419 1.303c.287.287.624.431 1.012.431zm5.211 1.152-1.687-5.772h1.478l1.001 4.154 1.164-4.154h1.652l1.163 4.154 1.012-4.154h1.478l-1.699 5.772h-1.547l-1.233-4.317-1.233 4.317h-1.548z"/><path fill="none" stroke="#d41443" style="stroke:var(--color2,#d41443)" stroke-linejoin="round" stroke-linecap="round" stroke-width="1.454" d="m86.358 13.818 2.927 2.909-2.927 2.909"/></symbol><symbol id="icon-logo" viewBox="0 0 127 32"><path fill="#fff" style="fill:var(--color1,#fff)" d="M31.36 16.32C31.36 24.98 24.483 32 16 32S.64 24.98.64 16.32 7.517.64 16 .64s15.36 7.02 15.36 15.68z"/><path fill="#d41443" style="fill:var(--color2,#d41443)" d="M11.849.562C4.443 2.805 0 8.635 0 16.004c0 6.023 3.091 11.277 8.179 13.904 2.64 1.346 3.027.384.58-1.474-1.739-1.41-2.061-2.05-2.061-4.421 0-1.666-.386-3.011-.966-3.524-1.159-.961-1.288-3.46-.129-4.357.451-.384.902-1.666.966-2.819.322-4.229 4.894-8.201 9.466-8.201s9.145 3.973 9.466 8.201c.064 1.153.515 2.435.966 2.819 1.159.897 1.03 3.396-.129 4.357-.58.513-.966 1.858-.966 3.524 0 2.371-.322 3.011-2.061 4.421-2.705 2.114-1.932 2.883 1.095 1.025 4.25-2.627 7.406-8.33 7.406-13.391 0-10.124-10.561-18.325-19.963-15.506z"/><path fill="#d41443" style="fill:var(--color2,#d41443)" d="M12.686 7.994c-1.159.513-2.125 1.153-2.125 1.538 0 .705 3.477 1.986 5.474 1.986s5.474-1.281 5.474-1.986c0-.769-3.993-2.499-5.603-2.499-.644.064-2.125.449-3.22.961zm33.165 3.332c-.966.256-1.159 1.089-1.159 5.703v5.382h4.572l-.193-5.574c-.193-5.831-.451-6.279-3.22-5.51zm7.535.32c-2.125 1.153-2.898 2.563-2.898 5.318 0 3.78 2.061 5.574 5.86 5.318 2.576-.192 2.833-.384 3.027-1.986s.064-1.73-1.932-1.602c-2.061.192-2.125.064-2.125-2.05s.129-2.243 1.996-2.05c1.546.128 2.125-.128 2.383-1.089.129-.641 0-1.538-.386-1.922-.902-.897-4.25-.897-5.925.064zm7.663.064c-.193.513-.258 3.011-.129 5.638l.193 4.741h4.186c3.864 0 4.186-.128 4.379-1.474.193-1.217-.064-1.41-2.06-1.41-1.288 0-2.319-.32-2.319-.641 0-.384.902-.641 1.932-.641 1.481 0 1.932-.256 1.932-1.281s-.451-1.281-1.932-1.281c-1.03 0-1.932-.32-1.932-.641 0-.384.837-.641 1.868-.641 1.804 0 3.027-1.41 2.254-2.627-.58-.961-7.985-.705-8.372.256zm12.944-.192c-2.125.833-2.962 2.307-3.027 4.998-.065 4.613 1.803 6.215 6.633 5.767 1.868-.128 2.189-.448 2.189-1.794 0-1.41-.257-1.602-2.061-1.41-1.546.128-2.125-.064-2.447-1.089-.58-1.986.644-3.588 2.705-3.588 1.224 0 1.868-.384 1.996-1.217.451-2.05-2.833-3.011-5.989-1.666zm7.921-.256c-.323.256-.515 2.883-.515 5.831v5.382l2.06-.192c1.61-.128 2.19-.577 2.512-1.794l.386-1.602.515 1.73c.387 1.474.837 1.794 2.512 1.794 2.769 0 3.091-.448 1.932-2.691-.708-1.41-.837-2.114-.322-2.627.837-.833.902-3.652.129-4.87-.644-1.025-8.371-1.858-9.208-.961zm5.28 3.46c0 .705-.257 1.281-.644 1.281-.322 0-.644-.577-.644-1.281s.322-1.281.644-1.281c.387 0 .644.577.644 1.281zm6.247-3.396c-.258.192-.451 2.819-.451 5.767v5.318h4.186c4.057 0 4.186-.064 4.186-1.602 0-1.346-.322-1.602-1.932-1.602-1.03 0-1.932-.32-1.932-.641 0-.384.708-.641 1.61-.641 1.159 0 1.61-.32 1.61-1.281s-.451-1.281-1.61-1.281c-.902 0-1.61-.32-1.61-.641 0-.384.902-.641 1.932-.641 1.61 0 1.932-.256 1.932-1.602 0-1.538-.193-1.602-3.735-1.602-2.061 0-3.992.192-4.186.448zm13.009-.064c-1.16.32-4.122 8.842-3.542 10.252.515 1.281 3.413 1.153 4.186-.192.579-1.089.644-1.089 1.803 0 1.482 1.281 4.701 1.474 4.701.256 0-.384-.644-2.947-1.482-5.574-1.288-4.229-1.674-4.806-3.027-4.934-.902 0-2.061.064-2.64.192zm1.803 5.831c-.193.641-.322.256-.322-.769 0-1.089.129-1.538.322-1.153.129.448.129 1.346 0 1.922zm7.47-5.767c-.58.192-.837 1.986-.837 5.703v5.382h1.868c1.61 0 1.932-.32 2.189-1.794.257-1.666.257-1.666.772-.32.258.833.902 1.474 1.352 1.474.515 0 1.224-.641 1.546-1.474.515-1.346.58-1.346.58.384.065 1.602.257 1.794 2.061 1.602l1.996-.192.065-5.318c.129-4.934.064-5.318-1.288-5.638-2.061-.513-3.799.705-4.379 3.076l-.451 2.114-.708-2.243c-.902-3.011-2.254-3.78-4.765-2.755zm-106.707.641c-.193.256-.386 1.089-.386 1.922 0 1.474.064 1.474 7.406 1.474s7.406 0 7.406-1.474c0-2.178-.58-2.435-2.64-1.41-2.318 1.217-7.213 1.217-9.531 0-1.03-.513-1.996-.705-2.254-.513zm-1.868 5.702c-1.03 1.089.708 1.538 5.731 1.538h5.409v2.243c0 1.217.322 2.243.644 2.243.386 0 .644-.961.644-2.178 0-2.114.129-2.243 2.576-2.435 1.417-.128 2.576-.513 2.576-.833 0-.705-16.872-1.281-17.581-.577z"/><path fill="#d41443" style="fill:var(--color2,#d41443)" d="M8.629 23.308c0 3.524 1.224 4.229 7.406 4.229s7.406-.705 7.406-4.229c0-1.538-.322-2.178-.966-2.178-.58 0-.966.577-.966 1.538 0 3.588-4.894 3.908-5.603.384-.322-1.858-.515-1.922-3.8-1.922H8.629v2.178zm3.993 7.24c.386 2.05 6.955 1.858 6.955-.128 0-.705-.837-.961-3.606-.961-3.027 0-3.542.192-3.349 1.089z"/></symbol><symbol id="icon-close" viewBox="0 0 32 32"><path fill="currentColor" stroke-width="2" d="m2.518 2 26.963 28"/><path stroke-width="2" d="M2 29.481 30 2.518"/></symbol><symbol id="icon-arrow" viewBox="0 0 19 32"><path fill="none" stroke="var(--color1)" stroke-linejoin="round" stroke-linecap="round" stroke-width="6.4" d="M3.2 3.2 16 16 3.2 28.8"/></symbol><symbol id="icon-svglapte" viewBox="0 0 32 32"><path fill="#FFA5BA" style="fill:var(--color1,#ffa5ba)" d="M8.093.144c-.349.188-.552.563-.552 1.006.006.813.209 1.556.614 2.2l.177.294-.337.381c-.381.425-.473.581-.644 1.088-.141.412-.154 1.162-.031 1.581.429 1.437 1.854 2.269 3.247 1.9.473-.125.762-.282 1.203-.657l.375-.312.35.175c.196.1.528.243.742.324l.381.138v.7c0 1.106.227 1.763.81 2.356s1.498.9 2.291.762c.564-.1 1.117-.381 1.491-.762.584-.594.811-1.251.811-2.356v-.7l.387-.138a9.56 9.56 0 0 0 .737-.325l.349-.175.374.312c.442.375.731.531 1.203.657 1.394.369 2.819-.463 3.248-1.9.123-.419.111-1.169-.031-1.581-.172-.507-.264-.663-.644-1.088l-.337-.381.178-.294c.405-.643.608-1.388.614-2.2 0-.444-.204-.819-.553-1.006l-.264-.144H8.356l-.264.144zm14.736 1.955c0 .019-.179.313-.399.662-.651 1.032-.626 1.256.239 2.17.314.331.602.662.645.737.233.463-.234 1.038-.749.919-.124-.026-.394-.243-.787-.631-.786-.775-1.056-.863-1.658-.518-.694.399-1.578.806-2.008.924-.608.175-.817.307-.976.637-.129.256-.141.363-.141 1.363 0 1.231-.05 1.431-.399 1.6-.252.125-.301.125-.553 0-.35-.169-.399-.369-.399-1.6 0-1-.013-1.107-.135-1.363-.166-.324-.374-.462-.982-.637-.528-.15-1.308-.493-1.738-.774-.405-.262-.762-.363-1.043-.313-.185.038-.369.181-.86.662-.405.394-.694.625-.817.65-.509.119-.976-.463-.742-.919.043-.075.332-.406.644-.737.865-.913.89-1.137.239-2.169-.221-.349-.399-.643-.399-.662 0-.025 2.929-.037 6.508-.037s6.508.013 6.508.037zM6.245 13.206c-.314.212-.485.512-.485.844 0 .225 3.119 16.925 3.229 17.275.055.194.282.425.522.55.227.125.387.125 6.809.125s6.582 0 6.809-.125c.239-.125.467-.356.522-.55.111-.35 3.229-17.05 3.229-17.275 0-.331-.172-.631-.485-.844l-.209-.144H6.454l-.209.144zm18.21 2.275c-.061.5-.418 1.587-.682 2.081-1.283 2.375-3.715 3.819-6.729 3.987-2.278.132-4.205-.331-5.82-1.393a7.057 7.057 0 0 1-2.247-2.402l-.018-.035c-.307-.544-.712-1.713-.774-2.238l-.043-.356h16.356l-.043.356zM10.15 21.919c2.634 1.775 6.569 2.244 9.885 1.169a10.708 10.708 0 0 0 3.18-1.687c.276-.219.294-.219.264-.082-.018.081-.38 1.994-.804 4.244s-.78 4.156-.798 4.232l-.031.143H10.794l-.031-.143c-.019-.075-.374-1.981-.798-4.232s-.786-4.163-.804-4.243c-.031-.138-.013-.138.264.081.16.125.492.356.724.518z"/></symbol><symbol id="icon-svgapples" viewBox="0 0 32 32"><path fill="#FFA5BA" style="fill:var(--color2,#ffa5ba)" d="M29.626 21.411c-1.292-.458-2.382-.344-3.242.018.145-.877.47-1.832 1.17-2.481a1.065 1.065 0 0 0-1.449-1.561c-1.229 1.14-1.706 2.748-1.874 4.081a4.036 4.036 0 0 0-1.058-.311l1.89-9.83a1.065 1.065 0 0 0-1.046-1.266h-.204c.094-.5.141-.997.137-1.47-.016-1.994-.903-3.495-2.374-4.017-1.41-.5-2.59-.35-3.507.066.145-.976.494-2.063 1.282-2.794A1.065 1.065 0 0 0 17.902.285c-1.32 1.225-1.815 2.965-1.982 4.386-.735-.348-1.644-.527-2.708-.33-1.094-1.571-2.613-2.296-4.089-1.942-1.451.349-2.358 1.115-2.901 1.962-.41-.899-.712-2.001-.452-3.036A1.065 1.065 0 0 0 3.705.806c-.439 1.746.095 3.476.729 4.758-1.016.137-2.117.65-3.049 1.866-.578.755-.773 1.698-.596 2.7a1.065 1.065 0 0 0-.674 1.197l3.809 19.809c.096.501.535.864 1.046.864h15.237c.511 0 .949-.362 1.046-.864l.038-.195c.287.198.596.363.927.487 1.266.471 2.447.278 3.044.118.316.085.795.179 1.364.179.506 0 1.084-.075 1.68-.297 2.36-.879 3.615-3.839 3.596-6.178-.015-1.904-.866-3.339-2.276-3.839zm-6.952-9.221c-.49 4.705-4.452 7.91-9.971 7.91s-9.481-3.204-9.971-7.91h19.942zm-6.642-4.675a1.047 1.047 0 0 0 1.86 0c.029-.048.29-.466.769-.777.629-.408 1.35-.46 2.203-.157.851.302.952 1.518.956 2.027.004.463-.064.962-.191 1.453h-7.126c.236-1.19.094-2.492-.289-3.669a2.12 2.12 0 0 1 1.047.346c.479.311.74.729.769.777zM3.077 8.724c.55-.719 1.182-1.068 1.932-1.069h.002c.57 0 1.016.208 1.066.232a1.05 1.05 0 0 0 1.079-.037c.331-.211.51-.592.481-.983-.006-.077-.116-1.893 1.983-2.397.876-.211 1.625.754 1.906 1.178.807 1.22 1.221 3.108.777 4.413H2.954c-.141-.443-.179-.943.122-1.336zM5.851 29.87 3.74 18.892c.138.133.281.263.427.389 2.208 1.901 5.239 2.948 8.535 2.948s6.328-1.047 8.535-2.948c.052-.044.102-.09.152-.135l-.431 2.243c-.02.007-.041.013-.061.021-1.41.5-2.261 1.935-2.276 3.839-.009 1.164.297 2.483.898 3.622l-.192.999H5.85zm21.711-.438c-.943.351-1.881.017-1.916.005a1.04 1.04 0 0 0-.768 0c-.009.004-.96.352-1.917-.005-1.338-.498-2.223-2.556-2.21-4.165.004-.466.095-1.578.858-1.849.349-.124.661-.175.939-.175 1.108 0 1.657.812 1.782 1.024a1.047 1.047 0 0 0 1.862 0c.156-.265.977-1.468 2.721-.849.763.271.854 1.383.858 1.849.013 1.609-.872 3.667-2.21 4.166z"/></symbol><symbol id="icon-svginima" viewBox="0 0 28 32"><path fill="#ffa5ba" style="fill:var(--color3,#ffa5ba)" d="M6.126.069C3.204.681.935 3.082.196 6.347c-.271 1.14-.259 3.337.012 4.586.604 2.773 1.948 5.234 4.069 7.37 1.899 1.921 3.563 3.085 6.202 4.297l1.381.648v8.751h1.479v-8.271l.37.108c.21.06.53.06.74 0l.37-.108v8.271h1.479v-8.763l1.319-.6c2.552-1.176 4.402-2.449 6.202-4.273 2.873-2.917 4.34-6.23 4.34-9.831.012-3.949-2.059-7.154-5.314-8.247-.69-.24-1.048-.276-2.355-.264-1.369.012-1.677.06-2.712.384-1.221.396-2.416 1.02-3.206 1.669l-.456.384-.666-.492C11.736.706 9.986.093 7.926.009c-.715-.024-1.529 0-1.8.06zm2.811 1.489c.518.096 1.221.3 1.59.444.789.324 2.108 1.152 2.626 1.645.801.756 1.023.744 1.936-.072 1.43-1.296 3.736-2.185 5.634-2.185 2.577 0 4.932 2.017 5.684 4.862.136.504.259 1.32.271 1.813.049 1.08.012 1.116-1.664 1.753-1.356.516-2.491.768-4.439.984-1.245.144-1.504.216-1.886.492-.789.588-.912 1.02-.912 3.469 0 1.837-.025 2.185-.21 2.377-.259.288-.715.276-1.023-.024-.234-.228-.247-.396-.247-2.821 0-2.689-.074-3.145-.579-3.685-.111-.12-.986-.588-1.936-1.056-1.073-.504-2.145-1.128-2.786-1.621C7.901 5.616 6.533 4.956 3.993 4.56a37.02 37.02 0 0 1-1.369-.24c-.111-.084.555-.936 1.159-1.465 1.43-1.272 3.058-1.681 5.154-1.296zM4.856 6.191c1.258.312 2.675 1.02 3.97 1.981.543.396 1.233.9 1.541 1.128.826.612 2.195 1.38 3.23 1.813.506.216.986.468 1.073.576.111.132.148.888.148 2.773 0 2.269.037 2.653.234 3.073.407.864 1.06 1.26 2.059 1.26.641 0 1.085-.192 1.553-.684.53-.54.592-.876.592-3.169 0-2.605-.025-2.557 1.43-2.677 1.48-.132 3.317-.528 4.537-.972.616-.228 1.147-.384 1.171-.348.136.132-.789 2.485-1.332 3.397-.863 1.477-1.541 2.317-2.848 3.541-1.899 1.777-4.512 3.301-7.176 4.213l-.962.336-.949-.336c-2.848-.96-5.363-2.485-7.385-4.441-2.564-2.461-3.908-5.066-4.241-8.151-.123-1.152.062-3.133.345-3.601.099-.168 1.862.012 3.008.288z"/></symbol><symbol id="icon-casuta" viewBox="0 0 35 32"><path fill="#D31342" style="fill:var(--color1,#d31342)" d="M34.473 15.38a1.482 1.482 0 0 0-.133-2.217l-.003-.002L18.736.425A2.037 2.037 0 0 0 17.486 0c-.489 0-.938.171-1.291.457l.004-.003L.545 13.836a1.47 1.47 0 0 0-.077 2.222l.001.001.393.378c.649.634 1.702.71 2.348.169l1.169-.977v14.31c0 .876.765 1.588 1.705 1.588h6.1c.943 0 1.705-.713 1.705-1.588v-10.01h7.782v10.046c0 .856.694 1.551 1.551 1.551l.052-.001h-.003 6.467c.94 0 1.702-.71 1.702-1.588V15.834s.326.262.724.591c.396.326 1.233.064 1.865-.585l.445-.457z"/></symbol><symbol id="icon-svggit" viewBox="0 0 32 32"><path fill="#fff" style="fill:var(--color1,#fff)" d="M16 0C7.211 0 0 7.211 0 16c0 7.499 5.262 14.312 12.25 16v-5.293a3.921 3.921 0 0 1-2.062-.06l.028.007c-.946-.278-1.714-.909-2.285-1.869-.363-.613-1.008-1.28-1.68-1.23l-.165-1.867c1.454-.125 2.71.886 3.456 2.139.333.558.715.885 1.205 1.029.472.141.981.074 1.573-.136.149-1.186.693-1.629 1.104-2.256-4.168-.621-5.829-2.832-6.488-4.576-.874-2.318-.405-5.213 1.139-7.043.03-.035.085-.128.064-.192-.709-2.141.154-3.91.186-4.098.818.24.95-.243 3.552 1.336l.448.27c.189.112.128.048.317.032a13.246 13.246 0 0 1 3.349-.469h.01c1.136.014 2.272.176 3.403.483l.146.016c-.013-.003.04-.01.128-.062 3.248-1.968 3.131-1.325 4.003-1.608.032.189.882 1.987.182 4.099-.096.291 2.816 2.957 1.202 7.235-.659 1.744-2.32 3.957-6.486 4.578.534.816 1.176 1.248 1.173 2.928v6.606c6.986-1.688 12.25-8.501 12.25-16 0-8.789-7.211-16-16-16z"/></symbol><symbol id="icon-telegram" viewBox="0 0 44 32"><path fill="#fff" style="fill:var(--color1,#fff)" d="m17.344 21.048-.676 8.86c.966 0 1.384-.388 1.886-.852l4.526-4.04 9.38 6.414c1.722.894 2.934.422 3.4-1.478L42.016 3.02c.548-2.374-.92-3.302-2.594-2.72L3.228 13.234c-2.47.896-2.434 2.18-.42 2.766l9.252 2.684L33.552 6.132c1.012-.626 1.932-.28 1.176.346l-17.386 14.57z"/></symbol><symbol id="icon-facebook" viewBox="0 0 16 32"><path fill="#fff" style="fill:var(--color1,#fff)" d="M14.143 15.971H10.11v14.865H3.998V15.971H1.092v-5.222h2.906V7.367c0-2.417 1.142-6.204 6.167-6.204l4.527.019v5.072h-3.284c-.538 0-1.297.272-1.297 1.425v3.073h4.567l-.534 5.219z"/></symbol></defs></svg>